<mxfile host="Electron" modified="2023-11-16T22:05:34.480Z" agent="Mozilla/5.0 (Windows NT 10.0; Win64; x64) AppleWebKit/537.36 (KHTML, like Gecko) draw.io/22.1.2 Chrome/114.0.5735.289 Electron/25.9.4 Safari/537.36" etag="yZYbLIzpVMoPlNZK651O" version="22.1.2" type="device">
  <diagram name="data" id="gG5AuMIs5X-WdQPPHmFj">
    <mxGraphModel dx="1098" dy="700" grid="1" gridSize="10" guides="1" tooltips="1" connect="1" arrows="1" fold="1" page="1" pageScale="1" pageWidth="827" pageHeight="1169" math="0" shadow="0">
      <root>
        <mxCell id="0" />
        <mxCell id="1" parent="0" />
        <mxCell id="F0AEDQZpANQhU5zspdkj-36" style="edgeStyle=orthogonalEdgeStyle;rounded=0;orthogonalLoop=1;jettySize=auto;html=1;dashed=1;" edge="1" parent="1" source="F0AEDQZpANQhU5zspdkj-1" target="F0AEDQZpANQhU5zspdkj-18">
          <mxGeometry relative="1" as="geometry" />
        </mxCell>
        <mxCell id="F0AEDQZpANQhU5zspdkj-37" value="impl" style="edgeLabel;html=1;align=center;verticalAlign=middle;resizable=0;points=[];" vertex="1" connectable="0" parent="F0AEDQZpANQhU5zspdkj-36">
          <mxGeometry x="-0.0545" y="-1" relative="1" as="geometry">
            <mxPoint as="offset" />
          </mxGeometry>
        </mxCell>
        <mxCell id="F0AEDQZpANQhU5zspdkj-1" value="Scoreboard" style="swimlane;fontStyle=1;align=center;verticalAlign=top;childLayout=stackLayout;horizontal=1;startSize=26;horizontalStack=0;resizeParent=1;resizeParentMax=0;resizeLast=0;collapsible=1;marginBottom=0;whiteSpace=wrap;html=1;" vertex="1" parent="1">
          <mxGeometry x="114" y="40" width="200" height="106" as="geometry" />
        </mxCell>
        <mxCell id="F0AEDQZpANQhU5zspdkj-3" value="" style="line;strokeWidth=1;fillColor=none;align=left;verticalAlign=middle;spacingTop=-1;spacingLeft=3;spacingRight=3;rotatable=0;labelPosition=right;points=[];portConstraint=eastwest;strokeColor=inherit;" vertex="1" parent="F0AEDQZpANQhU5zspdkj-1">
          <mxGeometry y="26" width="200" height="8" as="geometry" />
        </mxCell>
        <mxCell id="F0AEDQZpANQhU5zspdkj-4" value="+ startMatch(Match): void&lt;br&gt;+ updateScore(Match, int, int): void&lt;br&gt;+ finishMatch(Match): void&lt;br&gt;+ summary(): String" style="text;strokeColor=none;fillColor=none;align=left;verticalAlign=top;spacingLeft=4;spacingRight=4;overflow=hidden;rotatable=0;points=[[0,0.5],[1,0.5]];portConstraint=eastwest;whiteSpace=wrap;html=1;" vertex="1" parent="F0AEDQZpANQhU5zspdkj-1">
          <mxGeometry y="34" width="200" height="72" as="geometry" />
        </mxCell>
        <mxCell id="F0AEDQZpANQhU5zspdkj-40" style="edgeStyle=orthogonalEdgeStyle;rounded=0;orthogonalLoop=1;jettySize=auto;html=1;dashed=1;" edge="1" parent="1" source="F0AEDQZpANQhU5zspdkj-11" target="F0AEDQZpANQhU5zspdkj-27">
          <mxGeometry relative="1" as="geometry" />
        </mxCell>
        <mxCell id="F0AEDQZpANQhU5zspdkj-42" value="extends" style="edgeLabel;html=1;align=center;verticalAlign=middle;resizable=0;points=[];" vertex="1" connectable="0" parent="F0AEDQZpANQhU5zspdkj-40">
          <mxGeometry x="-0.0252" y="1" relative="1" as="geometry">
            <mxPoint as="offset" />
          </mxGeometry>
        </mxCell>
        <mxCell id="F0AEDQZpANQhU5zspdkj-11" value="abstract Team" style="swimlane;fontStyle=1;align=center;verticalAlign=top;childLayout=stackLayout;horizontal=1;startSize=26;horizontalStack=0;resizeParent=1;resizeParentMax=0;resizeLast=0;collapsible=1;marginBottom=0;whiteSpace=wrap;html=1;" vertex="1" parent="1">
          <mxGeometry x="554" y="50" width="160" height="110" as="geometry" />
        </mxCell>
        <mxCell id="F0AEDQZpANQhU5zspdkj-12" value="+ name: String&lt;br&gt;+ score: int" style="text;strokeColor=none;fillColor=none;align=left;verticalAlign=top;spacingLeft=4;spacingRight=4;overflow=hidden;rotatable=0;points=[[0,0.5],[1,0.5]];portConstraint=eastwest;whiteSpace=wrap;html=1;" vertex="1" parent="F0AEDQZpANQhU5zspdkj-11">
          <mxGeometry y="26" width="160" height="44" as="geometry" />
        </mxCell>
        <mxCell id="F0AEDQZpANQhU5zspdkj-13" value="" style="line;strokeWidth=1;fillColor=none;align=left;verticalAlign=middle;spacingTop=-1;spacingLeft=3;spacingRight=3;rotatable=0;labelPosition=right;points=[];portConstraint=eastwest;strokeColor=inherit;" vertex="1" parent="F0AEDQZpANQhU5zspdkj-11">
          <mxGeometry y="70" width="160" height="8" as="geometry" />
        </mxCell>
        <mxCell id="F0AEDQZpANQhU5zspdkj-14" value="+ setScore(int): void&lt;br&gt;" style="text;strokeColor=none;fillColor=none;align=left;verticalAlign=top;spacingLeft=4;spacingRight=4;overflow=hidden;rotatable=0;points=[[0,0.5],[1,0.5]];portConstraint=eastwest;whiteSpace=wrap;html=1;" vertex="1" parent="F0AEDQZpANQhU5zspdkj-11">
          <mxGeometry y="78" width="160" height="32" as="geometry" />
        </mxCell>
        <mxCell id="F0AEDQZpANQhU5zspdkj-33" style="edgeStyle=orthogonalEdgeStyle;rounded=0;orthogonalLoop=1;jettySize=auto;html=1;" edge="1" parent="1" source="F0AEDQZpANQhU5zspdkj-18" target="F0AEDQZpANQhU5zspdkj-23">
          <mxGeometry relative="1" as="geometry" />
        </mxCell>
        <mxCell id="F0AEDQZpANQhU5zspdkj-18" value="LiveFootballScoreboard" style="swimlane;fontStyle=1;align=center;verticalAlign=top;childLayout=stackLayout;horizontal=1;startSize=26;horizontalStack=0;resizeParent=1;resizeParentMax=0;resizeLast=0;collapsible=1;marginBottom=0;whiteSpace=wrap;html=1;" vertex="1" parent="1">
          <mxGeometry x="114" y="280" width="200" height="58" as="geometry" />
        </mxCell>
        <mxCell id="F0AEDQZpANQhU5zspdkj-19" value="+ liveMatches: List&amp;lt;FootballMatch&amp;gt;" style="text;strokeColor=none;fillColor=none;align=left;verticalAlign=top;spacingLeft=4;spacingRight=4;overflow=hidden;rotatable=0;points=[[0,0.5],[1,0.5]];portConstraint=eastwest;whiteSpace=wrap;html=1;" vertex="1" parent="F0AEDQZpANQhU5zspdkj-18">
          <mxGeometry y="26" width="200" height="24" as="geometry" />
        </mxCell>
        <mxCell id="F0AEDQZpANQhU5zspdkj-20" value="" style="line;strokeWidth=1;fillColor=none;align=left;verticalAlign=middle;spacingTop=-1;spacingLeft=3;spacingRight=3;rotatable=0;labelPosition=right;points=[];portConstraint=eastwest;strokeColor=inherit;" vertex="1" parent="F0AEDQZpANQhU5zspdkj-18">
          <mxGeometry y="50" width="200" height="8" as="geometry" />
        </mxCell>
        <mxCell id="F0AEDQZpANQhU5zspdkj-35" style="edgeStyle=orthogonalEdgeStyle;rounded=0;orthogonalLoop=1;jettySize=auto;html=1;" edge="1" parent="1" source="F0AEDQZpANQhU5zspdkj-23" target="F0AEDQZpANQhU5zspdkj-27">
          <mxGeometry relative="1" as="geometry" />
        </mxCell>
        <mxCell id="F0AEDQZpANQhU5zspdkj-23" value="Match&amp;lt;FootballTeam&amp;gt;" style="swimlane;fontStyle=1;align=center;verticalAlign=top;childLayout=stackLayout;horizontal=1;startSize=26;horizontalStack=0;resizeParent=1;resizeParentMax=0;resizeLast=0;collapsible=1;marginBottom=0;whiteSpace=wrap;html=1;" vertex="1" parent="1">
          <mxGeometry x="354" y="292" width="160" height="34" as="geometry" />
        </mxCell>
        <mxCell id="F0AEDQZpANQhU5zspdkj-25" value="" style="line;strokeWidth=1;fillColor=none;align=left;verticalAlign=middle;spacingTop=-1;spacingLeft=3;spacingRight=3;rotatable=0;labelPosition=right;points=[];portConstraint=eastwest;strokeColor=inherit;" vertex="1" parent="F0AEDQZpANQhU5zspdkj-23">
          <mxGeometry y="26" width="160" height="8" as="geometry" />
        </mxCell>
        <mxCell id="F0AEDQZpANQhU5zspdkj-27" value="FootballTeam" style="swimlane;fontStyle=1;align=center;verticalAlign=top;childLayout=stackLayout;horizontal=1;startSize=26;horizontalStack=0;resizeParent=1;resizeParentMax=0;resizeLast=0;collapsible=1;marginBottom=0;whiteSpace=wrap;html=1;" vertex="1" parent="1">
          <mxGeometry x="554" y="279" width="160" height="60" as="geometry" />
        </mxCell>
        <mxCell id="F0AEDQZpANQhU5zspdkj-29" value="" style="line;strokeWidth=1;fillColor=none;align=left;verticalAlign=middle;spacingTop=-1;spacingLeft=3;spacingRight=3;rotatable=0;labelPosition=right;points=[];portConstraint=eastwest;strokeColor=inherit;" vertex="1" parent="F0AEDQZpANQhU5zspdkj-27">
          <mxGeometry y="26" width="160" height="8" as="geometry" />
        </mxCell>
        <mxCell id="F0AEDQZpANQhU5zspdkj-30" value="+ incrementScore(): int" style="text;strokeColor=none;fillColor=none;align=left;verticalAlign=top;spacingLeft=4;spacingRight=4;overflow=hidden;rotatable=0;points=[[0,0.5],[1,0.5]];portConstraint=eastwest;whiteSpace=wrap;html=1;" vertex="1" parent="F0AEDQZpANQhU5zspdkj-27">
          <mxGeometry y="34" width="160" height="26" as="geometry" />
        </mxCell>
        <mxCell id="F0AEDQZpANQhU5zspdkj-47" style="edgeStyle=orthogonalEdgeStyle;rounded=0;orthogonalLoop=1;jettySize=auto;html=1;dashed=1;" edge="1" parent="1" source="F0AEDQZpANQhU5zspdkj-43" target="F0AEDQZpANQhU5zspdkj-23">
          <mxGeometry relative="1" as="geometry" />
        </mxCell>
        <mxCell id="F0AEDQZpANQhU5zspdkj-43" value="Match&amp;lt;T&amp;gt;" style="swimlane;fontStyle=1;align=center;verticalAlign=top;childLayout=stackLayout;horizontal=1;startSize=26;horizontalStack=0;resizeParent=1;resizeParentMax=0;resizeLast=0;collapsible=1;marginBottom=0;whiteSpace=wrap;html=1;" vertex="1" parent="1">
          <mxGeometry x="354" y="50" width="160" height="110" as="geometry" />
        </mxCell>
        <mxCell id="F0AEDQZpANQhU5zspdkj-44" value="+ homeTeam: T&lt;br&gt;+ awayTeam: T" style="text;strokeColor=none;fillColor=none;align=left;verticalAlign=top;spacingLeft=4;spacingRight=4;overflow=hidden;rotatable=0;points=[[0,0.5],[1,0.5]];portConstraint=eastwest;whiteSpace=wrap;html=1;" vertex="1" parent="F0AEDQZpANQhU5zspdkj-43">
          <mxGeometry y="26" width="160" height="44" as="geometry" />
        </mxCell>
        <mxCell id="F0AEDQZpANQhU5zspdkj-45" value="" style="line;strokeWidth=1;fillColor=none;align=left;verticalAlign=middle;spacingTop=-1;spacingLeft=3;spacingRight=3;rotatable=0;labelPosition=right;points=[];portConstraint=eastwest;strokeColor=inherit;" vertex="1" parent="F0AEDQZpANQhU5zspdkj-43">
          <mxGeometry y="70" width="160" height="8" as="geometry" />
        </mxCell>
        <mxCell id="F0AEDQZpANQhU5zspdkj-46" value="+ updateScore(int, int): void" style="text;strokeColor=none;fillColor=none;align=left;verticalAlign=top;spacingLeft=4;spacingRight=4;overflow=hidden;rotatable=0;points=[[0,0.5],[1,0.5]];portConstraint=eastwest;whiteSpace=wrap;html=1;" vertex="1" parent="F0AEDQZpANQhU5zspdkj-43">
          <mxGeometry y="78" width="160" height="32" as="geometry" />
        </mxCell>
      </root>
    </mxGraphModel>
  </diagram>
</mxfile>
